<!--
Volebo Logo Project

Copyright (C) 2016  Volebo <volebo.net@gmail.com>
Copyright (C) 2016  Koryukov Maksim <maxkoryukov@gmail.com>

This artwork licensed under Creative Commons
Attribution-NonCommercial-ShareAlike 4.0 International
Public License.

You can can redistribute it and/or modify it under the terms
of the CC-BY-NC-SA-4.0 License, attached to this software package.

This work is distributed in the hope that it will be useful,
but WITHOUT ANY WARRANTY; without even the implied warranty of
MERCHANTABILITY or FITNESS FOR A PARTICULAR PURPOSE.

You should have received a copy of the CC-BY-NC-SA-4.0 License
along with this work. If not, see
<https://creativecommons.org/licenses/by-nc-sa/4.0/>.
-->
<svg xmlns:dc="http://purl.org/dc/elements/1.1/" xmlns:cc="http://creativecommons.org/ns#" xmlns:rdf="http://www.w3.org/1999/02/22-rdf-syntax-ns#" xmlns:svg="http://www.w3.org/2000/svg" xmlns="http://www.w3.org/2000/svg" xmlns:sodipodi="http://sodipodi.sourceforge.net/DTD/sodipodi-0.dtd" xmlns:inkscape="http://www.inkscape.org/namespaces/inkscape" version="1.1" x="0px" y="0px" width="800px" height="800px" viewBox="0 0 800 800" enable-background="new 0 0 800 800" xml:space="preserve" id="svg2">
  <g id="layer1">
    <path d="m 29.419679,572.32655 c -4.27217,3.9e-4 -4.996781,5.40375 -2.346258,8.0522 12.002394,25.63808 23.272612,51.7347 35.71147,77.09971 3.882233,3.17007 7.339328,-2.27211 7.891557,-5.6817 11.359848,-25.21106 23.434465,-50.19015 34.375932,-75.53726 0.32573,-4.49757 -6.942296,-5.34298 -7.616519,-0.76476 C 86.724417,598.85395 76.012973,622.21317 65.30153,645.57239 54.092585,621.55041 43.478111,597.17042 31.925032,573.3554 c -0.639712,-0.68082 -1.571963,-1.06439 -2.505353,-1.02885 z" id="path4198"/>
    <path d="m 151.30361,572.40366 c -22.96058,-0.1699 -43.26187,21.18408 -41.912,44.11641 -0.16403,23.30103 21.83797,43.73497 45.07511,41.83586 22.9855,-0.37845 42.79328,-22.24118 40.86679,-45.17068 -0.54226,-22.61242 -21.41403,-41.98762 -44.0299,-40.78159 z m 1.07775,7.57437 c 20.6036,-0.77542 38.47334,19.60254 35.16147,39.93706 -1.90815,19.80832 -22.84372,34.74197 -42.22235,30.25233 -18.97909,-3.37025 -32.39402,-23.99043 -27.60779,-42.71514 3.4234,-15.60852 18.57985,-27.93231 34.66867,-27.47425 z" id="path4206"/>
    <path d="m 213.93368,535.81459 c -5.72299,0.25507 -3.33334,8.06176 -3.72793,11.49604 0.17034,36.25464 -0.33422,72.58604 0.24076,108.79478 1.54023,4.29011 8.55595,2.00176 7.26025,-2.46021 -0.16675,-38.50418 0.32775,-77.08093 -0.237,-115.54155 -0.47659,-1.49795 -2.0123,-2.36135 -3.53608,-2.28906 z" id="path13"/>
    <path d="m 274.45339,572.48831 c -22.95585,-0.21001 -43.28217,21.0909 -41.912,44.02989 -0.15164,23.01597 21.32484,43.32227 44.30638,41.86498 13.13873,-0.11837 26.63679,-6.8182 33.42916,-18.19203 0.90798,-4.35686 -5.84906,-6.29151 -7.50854,-2.10848 -12.72871,16.99852 -41.07127,16.99734 -54.16603,0.40251 -13.59178,-14.677 -10.55,-40.42369 5.97561,-51.6795 16.06379,-12.69572 42.0576,-6.87559 51.71146,11.04462 1.53233,4.17559 -8.67598,4.12947 -11.613,6.68932 -14.99701,6.29553 -30.49625,11.70086 -45.22955,18.46579 -3.12376,3.11947 1.64627,8.43336 5.18421,5.67561 19.95394,-8.09225 40.06141,-15.875 59.92488,-24.14978 0.86007,1.76536 1.75966,-2.61419 1.23951,-4.04204 -5.89016,-16.90737 -23.48607,-28.68936 -41.34209,-28.00089 z" id="path15"/>
    <path d="m 329.95299,535.81459 c -5.72052,0.25677 -3.33456,8.06128 -3.72795,11.49604 0.25716,24.49989 -0.48265,49.0393 0.30848,73.51858 2.21412,22.03853 23.90132,39.82337 45.9879,37.4618 22.51455,-1.05367 41.53011,-22.60738 39.65869,-45.10576 -0.45208,-22.93371 -22.27125,-42.65422 -45.15278,-40.74397 -10.92963,0.47923 -22.28726,5.22513 -29.03728,13.96753 -1.3241,4.01336 4.82259,6.9158 7.03643,3.14674 14.19518,-14.34488 40.47898,-12.23081 52.25317,4.1944 12.47592,15.11177 8.61351,40.03494 -7.80384,50.75598 -15.60182,11.47595 -39.56226,6.77452 -49.89264,-9.57377 -9.24168,-13.03918 -4.83262,-29.79391 -5.85711,-44.59604 -0.25258,-17.44689 0.47161,-35.01841 -0.30094,-52.39987 -0.52309,-1.40566 -2.01955,-2.18805 -3.47213,-2.12166 z" id="path17"/>
    <path d="m 463.88406,572.40366 c -22.959,-0.16855 -43.26503,21.18401 -41.91576,44.11641 -0.16258,23.29982 21.84003,43.73537 45.07698,41.83586 22.98597,-0.37772 42.79477,-22.24054 40.86679,-45.17068 -0.53976,-22.6111 -21.41547,-41.98606 -44.02801,-40.78159 z m 1.07775,7.57437 c 20.59781,-0.7672 38.47894,19.59605 35.15583,39.93706 -1.88753,19.49308 -22.23634,34.38507 -41.41169,30.39716 -19.64024,-2.98068 -33.69623,-24.47041 -28.22472,-43.67816 3.7651,-15.21113 18.68376,-27.11226 34.48058,-26.65606 z" id="path19"/>
    <path d="m 545.18202,572.39426 c -5.72254,0.25343 -3.33646,8.06393 -3.72982,11.49791 0.18721,24.0644 -0.36026,48.21468 0.24828,72.23017 1.55903,4.27081 8.54819,1.97551 7.25462,-2.47714 0.61506,-15.6595 -1.25623,-31.52019 0.97054,-47.06001 3.30597,-16.37683 19.97032,-29.8246 36.95772,-26.10872 17.40711,3.28058 28.37586,21.81177 26.54132,38.79535 0.32159,12.33494 -0.57833,24.83285 0.32916,37.09127 1.79129,4.00666 8.40721,1.57736 7.17185,-2.71789 -0.56754,-15.57169 1.0958,-31.28803 -0.7279,-46.78541 -3.18742,-19.81468 -22.2115,-37.01286 -42.85571,-34.26589 -11.52159,1.1041 -22.04156,8.09512 -28.38698,17.6463 -0.96206,-5.40183 1.7528,-11.8327 -0.97431,-16.787 -0.71954,-0.7513 -1.77453,-1.08915 -2.79877,-1.05894 z" id="path21"/>
    <path d="m 672.58074,572.48831 c -22.95594,-0.20902 -43.2816,21.09118 -41.91388,44.02989 -0.14855,23.01453 21.32489,43.32108 44.30638,41.86498 13.14014,-0.11754 26.63796,-6.8183 33.43293,-18.19203 0.90793,-4.3567 -5.84965,-6.29217 -7.50854,-2.10848 -12.73003,16.98981 -41.07137,17.00332 -54.16981,0.40251 -13.30134,-14.30756 -10.74493,-39.67732 5.28344,-51.14345 15.62679,-13.01097 41.56901,-8.01538 51.77167,9.44775 4.19119,4.85526 -6.44225,4.60496 -9.18773,7.03328 -15.59538,6.53141 -31.68655,12.18286 -47.01909,19.18265 -3.12366,3.12058 1.64591,8.43343 5.18421,5.67562 19.9479,-8.08403 40.03917,-15.87615 59.90231,-24.13286 0.81804,1.6609 1.82089,-2.63831 1.26209,-4.06461 -5.89754,-16.90095 -23.48836,-28.68332 -41.34398,-27.99525 z" id="path23"/>
    <path d="m 731.47911,535.81459 c -5.72278,0.25364 -3.34045,8.06049 -3.7317,11.49604 0.25716,24.49989 -0.48265,49.0393 0.30847,73.51858 2.15504,21.26831 22.89778,39.44709 44.38539,37.25678 4.05436,-1.74402 1.73577,-8.48386 -2.62762,-7.28283 -19.59181,0.2161 -36.5893,-18.76288 -34.56334,-38.31761 0,-10.83521 0,-21.67043 0,-32.50564 12.39677,-0.34241 24.97619,0.6171 37.28688,-0.35361 3.95267,-1.85078 1.56911,-8.4549 -2.74799,-7.23392 -11.51297,0 -23.02592,0 -34.53889,0 -0.39322,-11.50002 0.6959,-23.21899 -0.37429,-34.62166 -0.56531,-1.31115 -2.01332,-2.01595 -3.39691,-1.95613 z" id="path25"/>
    <path d="m 524.64452,645.45201 c -6.77539,-0.32114 -8.85011,10.16139 -2.45457,12.44025 6.15802,3.02921 12.23939,-5.97394 7.0985,-10.5443 -1.20961,-1.22427 -2.92382,-1.9219 -4.64393,-1.89595 z" id="circle27"/>
  </g>
  <g id="layer2">
    <g transform="matrix(1.9006196,0,0,1.9006196,-360.24783,-305.22809)" id="Layer_2">
      <path id="circle4" d="m 369.111,389.136 c -0.526,0 -1.039,-0.078 -1.563,-0.105 -1.282,4.015 -4.004,7.581 -7.961,9.806 -2.588,1.455 -5.514,2.226 -8.459,2.226 -6.246,0 -12.027,-3.379 -15.086,-8.816 -2.267,-4.024 -2.828,-8.689 -1.582,-13.136 1.056,-3.766 3.311,-6.982 6.416,-9.258 -0.66,-1.678 -1.173,-3.394 -1.525,-5.141 -10.192,6.282 -13.708,19.523 -7.787,30.052 4.117,7.316 11.729,11.433 19.564,11.433 3.727,0 7.502,-0.929 10.977,-2.885 5.691,-3.203 9.424,-8.527 10.809,-14.422 -1.257,0.161 -2.529,0.246 -3.803,0.246 z"/>
      <path id="circle3" d="m 369.111,386.569 c 4.61,0 9.283,-1.148 13.586,-3.57 5.408,-3.043 9.377,-7.642 11.72,-12.91 -1.782,-0.152 -3.542,-0.435 -5.263,-0.837 -2.004,3.871 -5.087,7.085 -8.975,9.273 -3.384,1.904 -7.212,2.909 -11.068,2.909 -8.175,0 -15.737,-4.419 -19.741,-11.533 -2.964,-5.268 -3.694,-11.372 -2.066,-17.191 1.629,-5.819 5.426,-10.655 10.694,-13.618 0.902,-0.508 1.84,-0.942 2.799,-1.319 -0.217,-1.764 -0.267,-3.543 -0.223,-5.327 -1.733,0.56 -3.445,1.244 -5.093,2.171 -13.361,7.517 -18.102,24.441 -10.584,37.802 5.095,9.057 14.513,14.15 24.214,14.15 z"/>
      <path id="circle2" d="m 414.392,363.245 c 3.542,-1.993 6.56,-4.541 9.082,-7.443 -1.685,-0.265 -3.358,-0.609 -5.014,-1.072 -0.273,-0.077 -0.531,-0.187 -0.803,-0.269 -1.713,1.629 -3.63,3.098 -5.783,4.31 -4.383,2.464 -9.335,3.767 -14.327,3.767 -10.578,0 -20.368,-5.721 -25.55,-14.93 -3.835,-6.818 -4.782,-14.72 -2.678,-22.252 2.111,-7.531 7.025,-13.792 13.843,-17.626 1.278,-0.719 2.617,-1.309 3.981,-1.826 0.267,-1.662 0.599,-3.319 1.059,-4.963 0.085,-0.307 0.2,-0.596 0.293,-0.898 -2.679,0.731 -5.316,1.789 -7.85,3.213 -16.568,9.319 -22.441,30.303 -13.121,46.869 6.317,11.232 17.995,17.547 30.022,17.547 5.718,-0.002 11.511,-1.426 16.846,-4.427 z"/>
      <path id="circle1" d="m 441.301,273.153 c -3.703,-1.036 -7.428,-1.532 -11.093,-1.532 l 0,5.134 c 3.264,0 6.53,0.452 9.709,1.343 9.242,2.587 16.929,8.622 21.634,16.988 4.706,8.368 5.875,18.066 3.287,27.311 -4.327,15.461 -18.551,26.258 -34.585,26.258 -3.268,0 -6.532,-0.451 -9.717,-1.34 -9.243,-2.589 -16.926,-8.622 -21.632,-16.987 -4.706,-8.367 -5.875,-18.066 -3.287,-27.312 4.331,-15.46 18.552,-26.259 34.587,-26.261 l 0.004,-5.134 c 0,0 0,0 -0.004,0 -17.957,0.001 -34.452,11.871 -39.53,30.011 -6.116,21.848 6.635,44.51 28.479,50.625 3.705,1.038 7.432,1.532 11.101,1.532 17.957,0 34.449,-11.866 39.529,-30.009 6.115,-21.843 -6.637,-44.512 -28.482,-50.627 z"/>
    </g>
  </g>
</svg>
